<?xml version="1.0" encoding="UTF-8"?>
<!DOCTYPE svg PUBLIC "-//W3C//DTD SVG 1.1//EN" "http://www.w3.org/Graphics/SVG/1.1/DTD/svg11.dtd">
<svg version="1.1" xmlns="http://www.w3.org/2000/svg" xmlns:xlink="http://www.w3.org/1999/xlink" width="24" height="24"  xml:space="preserve" id="addIcon2">
    <!-- Generated by PaintCode - http://www.paintcodeapp.com -->
    <circle id="addIcon2-oval2" stroke="none" fill="rgb(170, 170, 170)" cx="12" cy="12" r="12" />
    <path id="addIcon2-bezier" stroke="none" fill="rgb(255, 255, 255)" d="M 13,6 C 13,6 13,8.37 13,11 L 18,11 C 18.55,11 19,11.45 19,12 19,12.55 18.55,13 18,13 L 13,13 C 13,15.63 13,18 13,18 13,18.55 12.55,19 12,19 11.45,19 11,18.55 11,18 11,18 11,15.63 11,13 L 6,13 C 5.45,13 5,12.55 5,12 5,11.45 5.45,11 6,11 L 11,11 C 11,8.37 11,6 11,6 11,5.45 11.45,5 12,5 12.55,5 13,5.45 13,6 Z M 13,6" />
</svg>
