<?xml version="1.0" encoding="UTF-8"?>
<!DOCTYPE svg PUBLIC "-//W3C//DTD SVG 1.1//EN" "http://www.w3.org/Graphics/SVG/1.1/DTD/svg11.dtd">
<svg version="1.1" xmlns="http://www.w3.org/2000/svg" xmlns:xlink="http://www.w3.org/1999/xlink" width="24" height="24"  xml:space="preserve" id="closeIcon2">
    <!-- Generated by PaintCode - http://www.paintcodeapp.com -->
    <circle id="closeIcon2-oval2" stroke="none" fill="rgb(170, 170, 170)" cx="12" cy="12" r="12" />
    <path id="closeIcon2-bezier" stroke="none" fill="rgb(255, 255, 255)" d="M 8,1 C 8,1 8,3.37 8,6 10.63,6 13,6 13,6 13.55,6 14,6.45 14,7 14,7.55 13.55,8 13,8 L 8,8 C 8,10.63 8,13 8,13 8,13.55 7.55,14 7,14 6.45,14 6,13.55 6,13 6,13 6,10.63 6,8 3.37,8 1,8 1,8 0.45,8 0,7.55 0,7 0,6.45 0.45,6 1,6 L 6,6 C 6,3.37 6,1 6,1 6,0.45 6.45,-0 7,-0 7.55,-0 8,0.45 8,1 Z M 8,1" transform="translate(2.1, 12) rotate(-45)"  />
</svg>
