<?xml version="1.0" encoding="UTF-8"?>
<!DOCTYPE svg PUBLIC "-//W3C//DTD SVG 1.1//EN" "http://www.w3.org/Graphics/SVG/1.1/DTD/svg11.dtd">
<svg version="1.1" xmlns="http://www.w3.org/2000/svg" xmlns:xlink="http://www.w3.org/1999/xlink" width="24" height="24"  xml:space="preserve" id="history">
    <!-- Generated by PaintCode - http://www.paintcodeapp.com -->
    <path id="history-bezier" stroke="none" fill="rgb(0, 0, 0)" d="M 22,11.98 C 22.01,17.49 17.52,22 12.01,22 9.63,22 7.44,21.17 5.72,19.79 5.28,19.43 5.24,18.76 5.65,18.35 L 6.1,17.9 C 6.45,17.55 7.01,17.51 7.39,17.82 8.66,18.82 10.26,19.42 12,19.42 16.1,19.42 19.42,16.1 19.42,12 19.42,7.9 16.1,4.58 12,4.58 10.03,4.58 8.24,5.35 6.92,6.59 L 8.96,8.64 C 9.37,9.05 9.08,9.74 8.51,9.74 L 2.65,9.74 C 2.29,9.74 2,9.45 2,9.1 L 2,3.23 C 2,2.66 2.69,2.37 3.1,2.78 L 5.09,4.77 C 6.89,3.05 9.32,2 12,2 17.52,2 21.99,6.47 22,11.98 Z M 14.71,15.16 L 15.1,14.65 C 15.43,14.23 15.35,13.62 14.93,13.29 L 13.29,12.01 13.29,7.81 C 13.29,7.27 12.86,6.84 12.32,6.84 L 11.68,6.84 C 11.14,6.84 10.71,7.27 10.71,7.81 L 10.71,13.28 13.35,15.33 C 13.77,15.66 14.38,15.58 14.71,15.16 Z M 14.71,15.16" />
</svg>
